<svg xmlns="http://www.w3.org/2000/svg" xmlns:xlink="http://www.w3.org/1999/xlink" version="1.1" x="0px" y="0px" viewBox="0 0 24 24" style="enable-background:new 0 0 24 24;" xml:space="preserve"><g><path d="M12,0.5C5.659,0.5,0.5,5.659,0.5,12S5.659,23.5,12,23.5S23.5,18.341,23.5,12S18.341,0.5,12,0.5z M12,22.222   C6.364,22.222,1.778,17.636,1.778,12S6.364,1.778,12,1.778S22.222,6.364,22.222,12S17.636,22.222,12,22.222z"/><polygon points="12.639,6.25 11.361,6.25 11.361,11.361 6.25,11.361 6.25,12.639 11.361,12.639 11.361,17.75 12.639,17.75    12.639,12.639 17.75,12.639 17.75,11.361 12.639,11.361  "/></g></svg>
