<svg xmlns="http://www.w3.org/2000/svg" xmlns:xlink="http://www.w3.org/1999/xlink" version="1.1" x="0px" y="0px" viewBox="0 0 24 24" style="enable-background:new 0 0 24 24;" xml:space="preserve"><g><path d="M12,1.25C6.072,1.25,1.25,6.073,1.25,12S6.072,22.75,12,22.75S22.75,17.927,22.75,12S17.928,1.25,12,1.25z M12,21.556   c-5.269,0-9.556-4.287-9.556-9.556S6.731,2.444,12,2.444S21.556,6.731,21.556,12S17.269,21.556,12,21.556z"/><polygon points="15.378,7.777 12,11.155 8.622,7.777 7.777,8.621 11.156,12 7.777,15.379 8.622,16.223 12,12.845 15.378,16.223    16.223,15.379 12.844,12 16.223,8.621  "/></g></svg>
