<svg xmlns:dc="http://purl.org/dc/elements/1.1/" xmlns:cc="http://creativecommons.org/ns#" xmlns:rdf="http://www.w3.org/1999/02/22-rdf-syntax-ns#" xmlns:svg="http://www.w3.org/2000/svg" xmlns="http://www.w3.org/2000/svg" xmlns:sodipodi="http://sodipodi.sourceforge.net/DTD/sodipodi-0.dtd" xmlns:inkscape="http://www.inkscape.org/namespaces/inkscape" viewBox="0 0 855.63158 1070.2849625000001" version="1.1" x="0px" y="0px"><g transform="translate(388.04437,-3876.9696)"><path style="" d="m -367.09883,4711.6555 -20.93599,-20.9359 192.81257,-192.8156 192.8125718,-192.8157 -192.8173518,-192.8203 -192.81734,-192.8204 20.6377,-20.6093 20.6377,-20.6092 192.18268,192.1796 c 105.700482,105.6988 192.743822,192.1796 193.429652,192.1796 0.68584,0 88.012578,-86.7642 194.059428,-192.8094 l 192.81245,-192.8094 20.93599,20.936 20.93599,20.936 -192.80943,192.8124 c -106.04518,106.0469 -192.809428,193.3736 -192.809428,194.0595 0,0.6858 86.627868,87.8762 192.506368,193.7563 l 192.50636,192.5094 -20.6377,20.6093 -20.6377,20.6092 L 232.58703,4540.082 39.468362,4346.9664 -153.34724,4539.779 l -192.81561,192.8125 -20.93598,-20.936 z" fill="#000000"/></g></svg>
