<svg xmlns="http://www.w3.org/2000/svg" xmlns:xlink="http://www.w3.org/1999/xlink" version="1.1" x="0px" y="0px" viewBox="0 0 24 24" style="enable-background:new 0 0 24 24;" xml:space="preserve"><g><path d="M12.001,3.047c-4.938,0-8.955,4.016-8.955,8.951c0,4.938,4.017,8.955,8.955,8.955c4.937,0,8.953-4.017,8.953-8.955   C20.954,7.063,16.938,3.047,12.001,3.047z M12.001,20.284c-4.569,0-8.286-3.718-8.286-8.286c0-4.566,3.717-8.281,8.286-8.281   c4.568,0,8.284,3.715,8.284,8.281C20.285,16.566,16.569,20.284,12.001,20.284z"/><path d="M10.561,8.51c-0.185,0-0.335,0.149-0.335,0.334v6.364c0,0.185,0.15,0.334,0.335,0.334s0.334-0.149,0.334-0.334V8.844   C10.896,8.659,10.746,8.51,10.561,8.51z"/><path d="M13.439,8.51c-0.185,0-0.334,0.149-0.334,0.334v6.364c0,0.185,0.15,0.334,0.334,0.334s0.335-0.149,0.335-0.334V8.844   C13.774,8.659,13.624,8.51,13.439,8.51z"/></g></svg>
