<?xml version="1.0" encoding="UTF-8" standalone="no"?><!DOCTYPE svg PUBLIC "-//W3C//DTD SVG 1.1//EN" "http://www.w3.org/Graphics/SVG/1.1/DTD/svg11.dtd"><svg width="100%" height="100%" viewBox="0 0 76 76" version="1.1" xmlns="http://www.w3.org/2000/svg" xmlns:xlink="http://www.w3.org/1999/xlink" xml:space="preserve" style="fill-rule:evenodd;clip-rule:evenodd;stroke-linejoin:round;stroke-miterlimit:1.41421;"><path d="M37.729,0.417c-20.575,0 -37.312,16.733 -37.312,37.296c0,20.575 16.737,37.312 37.312,37.312c20.571,0 37.304,-16.737 37.304,-37.312c0,-20.563 -16.733,-37.296 -37.304,-37.296Zm0,71.821c-19.037,0 -34.525,-15.492 -34.525,-34.525c0,-19.025 15.488,-34.505 34.525,-34.505c19.034,0 34.517,15.48 34.517,34.505c0,19.033 -15.483,34.525 -34.517,34.525Z" style="fill-rule:nonzero;stroke:#000;stroke-width:0.83px;"/><path d="M31.729,23.179c-0.771,0 -1.396,0.621 -1.396,1.392l0,26.517c0,0.77 0.625,1.391 1.396,1.391c0.771,0 1.392,-0.621 1.392,-1.391l0,-26.517c0.004,-0.771 -0.621,-1.392 -1.392,-1.392Z" style="fill-rule:nonzero;stroke:#000;stroke-width:0.83px;"/><path d="M43.721,23.179c-0.771,0 -1.392,0.621 -1.392,1.392l0,26.517c0,0.77 0.625,1.391 1.392,1.391c0.767,0 1.396,-0.621 1.396,-1.391l0,-26.517c0,-0.771 -0.625,-1.392 -1.396,-1.392Z" style="fill-rule:nonzero;stroke:#000;stroke-width:0.83px;"/></svg>