<svg xmlns="http://www.w3.org/2000/svg" xmlns:xlink="http://www.w3.org/1999/xlink" version="1.1" x="0px" y="0px" viewBox="0 0 24 24" style="enable-background:new 0 0 24 24;" xml:space="preserve"><g><path d="M19.516,6.998l0.83,0.83l0.83-0.83l-2.491-2.491l-0.83,0.83l0.83,0.83l-1.268,1.268c-1.411-1.236-3.216-2.025-5.202-2.157   V4.662h0.587c0.648,0,1.174-0.527,1.174-1.174V2.314c0-0.648-0.527-1.174-1.174-1.174h-2.348c-0.648,0-1.174,0.527-1.174,1.174   v1.174c0,0.648,0.527,1.174,1.174,1.174h0.587v0.617c-4.581,0.304-8.218,4.119-8.218,8.776c0,4.856,3.95,8.805,8.805,8.805   s8.805-3.95,8.805-8.805c0-2.217-0.83-4.239-2.187-5.789L19.516,6.998z M10.455,3.488l-0.001-1.174h0.001h2.348v1.174H10.455z    M19.261,14.055c0,4.208-3.423,7.631-7.631,7.631s-7.631-3.424-7.631-7.631c0-4.208,3.423-7.631,7.631-7.631   S19.261,9.847,19.261,14.055z"/><path d="M12.216,13.043V8.771h-1.174v4.272c-0.349,0.203-0.587,0.578-0.587,1.011c0,0.648,0.526,1.174,1.174,1.174   s1.174-0.526,1.174-1.174C12.803,13.621,12.566,13.247,12.216,13.043z"/></g></svg>
